<?xml version="1.0" encoding="UTF-8" standalone="no"?>
<svg
   inkscape:export-ydpi="576"
   inkscape:export-xdpi="576"
   inkscape:export-filename="/media/taufikramadhan/Data/Tr Design Studio/Project Design/TR Creative Design/Icon Design/Project Hiring/Icon Icons/007 - Design And Development/Send/1 - Line/SVG/24 - Team.png"
   width="64pt"
   height="64pt"
   viewBox="0 0 22.577778 22.577778"
   version="1.1"
   id="svg831"
   inkscape:version="1.1 (1:1.1+202106031931+af4d65493e)"
   sodipodi:docname="24 - Team.svg"
   xmlns:inkscape="http://www.inkscape.org/namespaces/inkscape"
   xmlns:sodipodi="http://sodipodi.sourceforge.net/DTD/sodipodi-0.dtd"
   xmlns="http://www.w3.org/2000/svg"
   xmlns:svg="http://www.w3.org/2000/svg"
   xmlns:rdf="http://www.w3.org/1999/02/22-rdf-syntax-ns#"
   xmlns:cc="http://creativecommons.org/ns#"
   xmlns:dc="http://purl.org/dc/elements/1.1/">
  <defs
     id="defs825">
    <pattern
       id="EMFhbasepattern"
       patternUnits="userSpaceOnUse"
       width="6"
       height="6"
       x="0"
       y="0" />
    <pattern
       id="EMFhbasepattern-9"
       patternUnits="userSpaceOnUse"
       width="6"
       height="6"
       x="0"
       y="0" />
    <pattern
       id="EMFhbasepattern-0"
       patternUnits="userSpaceOnUse"
       width="6"
       height="6"
       x="0"
       y="0" />
    <pattern
       id="EMFhbasepattern-7"
       patternUnits="userSpaceOnUse"
       width="6"
       height="6"
       x="0"
       y="0" />
    <pattern
       id="EMFhbasepattern-2"
       patternUnits="userSpaceOnUse"
       width="6"
       height="6"
       x="0"
       y="0" />
    <pattern
       id="EMFhbasepattern-98"
       patternUnits="userSpaceOnUse"
       width="6"
       height="6"
       x="0"
       y="0" />
    <pattern
       id="EMFhbasepattern-6"
       patternUnits="userSpaceOnUse"
       width="6"
       height="6"
       x="0"
       y="0" />
    <pattern
       id="EMFhbasepattern-01"
       patternUnits="userSpaceOnUse"
       width="6"
       height="6"
       x="0"
       y="0" />
    <pattern
       id="EMFhbasepattern-07"
       patternUnits="userSpaceOnUse"
       width="6"
       height="6"
       x="0"
       y="0" />
    <pattern
       id="EMFhbasepattern-8"
       patternUnits="userSpaceOnUse"
       width="6"
       height="6"
       x="0"
       y="0" />
    <pattern
       id="EMFhbasepattern-4"
       patternUnits="userSpaceOnUse"
       width="6"
       height="6"
       x="0"
       y="0" />
    <pattern
       id="EMFhbasepattern-40"
       patternUnits="userSpaceOnUse"
       width="6"
       height="6"
       x="0"
       y="0" />
    <pattern
       id="EMFhbasepattern-08"
       patternUnits="userSpaceOnUse"
       width="6"
       height="6"
       x="0"
       y="0" />
    <pattern
       id="EMFhbasepattern-04"
       patternUnits="userSpaceOnUse"
       width="6"
       height="6"
       x="0"
       y="0" />
    <pattern
       id="EMFhbasepattern-014"
       patternUnits="userSpaceOnUse"
       width="6"
       height="6"
       x="0"
       y="0" />
    <pattern
       id="EMFhbasepattern-27"
       patternUnits="userSpaceOnUse"
       width="6"
       height="6"
       x="0"
       y="0" />
    <pattern
       id="EMFhbasepattern-09"
       patternUnits="userSpaceOnUse"
       width="6"
       height="6"
       x="0"
       y="0" />
    <pattern
       id="EMFhbasepattern-5"
       patternUnits="userSpaceOnUse"
       width="6"
       height="6"
       x="0"
       y="0" />
    <pattern
       id="EMFhbasepattern-018"
       patternUnits="userSpaceOnUse"
       width="6"
       height="6"
       x="0"
       y="0" />
  </defs>
  <sodipodi:namedview
     id="base"
     pagecolor="#ffffff"
     bordercolor="#666666"
     borderopacity="1.0"
     inkscape:pageopacity="0.0"
     inkscape:pageshadow="2"
     inkscape:zoom="4.2757863"
     inkscape:cx="42.682208"
     inkscape:cy="42.56527"
     inkscape:document-units="pt"
     inkscape:current-layer="layer1"
     showgrid="false"
     units="pt"
     inkscape:window-width="1366"
     inkscape:window-height="705"
     inkscape:window-x="0"
     inkscape:window-y="31"
     inkscape:window-maximized="1"
     inkscape:pagecheckerboard="true"
     inkscape:showpageshadow="false"
     inkscape:object-paths="true"
     inkscape:snap-intersection-paths="true"
     inkscape:snap-smooth-nodes="true"
     inkscape:snap-midpoints="true"
     showguides="false"
     inkscape:snap-bbox="true"
     inkscape:bbox-nodes="true"
     inkscape:snap-nodes="false"
     inkscape:snap-global="true"
     inkscape:document-rotation="0">
    <inkscape:grid
       type="xygrid"
       id="grid1378" />
    <sodipodi:guide
       position="0.97013831,21.607643"
       orientation="78.000048,0"
       id="guide1380"
       inkscape:locked="false" />
    <sodipodi:guide
       position="0.97013831,0.97013129"
       orientation="0,78.000005"
       id="guide1382"
       inkscape:locked="false" />
    <sodipodi:guide
       position="21.607639,0.97013129"
       orientation="-78.000048,0"
       id="guide1384"
       inkscape:locked="false" />
    <sodipodi:guide
       position="21.607639,21.607643"
       orientation="0,-78.000005"
       id="guide1386"
       inkscape:locked="false" />
  </sodipodi:namedview>
  <metadata
     id="metadata828">
    <rdf:RDF>
      <cc:Work
         rdf:about="">
        <dc:format>image/svg+xml</dc:format>
        <dc:type
           rdf:resource="http://purl.org/dc/dcmitype/StillImage" />
      </cc:Work>
    </rdf:RDF>
  </metadata>
  <g
     inkscape:label="Icon"
     inkscape:groupmode="layer"
     id="layer1"
     transform="translate(0,-274.42223)">
    <path
       id="path68452"
       style="color:#000000;display:inline;fill:#000000;stroke-width:1;stroke-linecap:round;stroke-linejoin:round;stroke-miterlimit:1.5;-inkscape-stroke:none"
       d="m 5.399282,279.52668 c -0.6568606,0.008 -1.275097,0.30645 -1.7091197,0.71251 -0.2394605,0.22403 -0.4263171,0.48479 -0.5155316,0.77883 -0.089218,0.29404 -0.062213,0.63816 0.1352213,0.91209 0.084215,0.11687 0.1894661,0.20498 0.3055484,0.27044 -0.00233,0.0399 -0.0039,0.0816 -0.0039,0.12741 0,0.67323 0.2029235,1.28739 0.5506376,1.74943 0.065758,0.0874 0.137205,0.1694 0.2138841,0.24509 l -0.073464,0.68195 c -1.1493287,0.31372 -1.9659817,0.68659 -2.5165426,1.24496 -0.5844353,0.59269 -0.81587744,1.37778 -0.81587744,2.34881 v 0.82108 c 0,0.17517 0.0702154,0.34457 0.19437894,0.46873 0.1242173,0.12429 0.2934992,0.19437 0.469375,0.19437 h 4.0416817 c 0.1848429,6.7e-4 0.3348727,-0.14931 0.3341471,-0.33415 C 6.009055,289.5644 5.8593981,289.41596 5.675567,289.41667 H 3.7785727 v -0.98815 c -6.658e-4,-0.18382 -0.1503227,-0.33227 -0.3341538,-0.33155 -0.1828157,6.7e-4 -0.3308384,0.14874 -0.3315507,0.33155 v 0.98815 H 1.6364906 v -0.81847 c 0,-0.6918 0.111905,-1.18573 0.3809594,-1.58625 0.1295926,0.0704 0.3083443,0.1997 0.4544199,0.42647 0.099989,0.15378 0.3055383,0.19767 0.4596223,0.0981 0.1540573,-0.0994 0.1988127,-0.30452 0.1001148,-0.45898 -0.1654043,-0.25677 -0.3693562,-0.4353 -0.5512866,-0.55648 0.4054274,-0.31758 1.000707,-0.58798 1.8345884,-0.82888 0.1549693,0.55862 0.6717757,0.97256 1.2774503,0.97255 0.6054316,0 1.1198756,-0.41442 1.2742024,-0.97321 h 6.655e-4 c 0.8258564,0.23825 1.418021,0.50526 1.8209385,0.81849 0.1452565,0.11246 0.3541678,0.086 0.466771,-0.0591 0.1124674,-0.14525 0.085999,-0.35416 -0.059165,-0.46677 -0.5373298,-0.41772 -1.2602018,-0.71852 -2.2174941,-0.97971 l -0.073469,-0.66895 c 0.053705,-0.052 0.1050324,-0.10656 0.1534249,-0.16448 0.2853274,-0.34146 0.4853419,-0.78051 0.5727381,-1.27159 0.00164,-3.3e-4 0.00302,-10e-4 0.00453,-10e-4 0.1783124,-0.0474 0.3366838,-0.19668 0.415416,-0.3686 0.078727,-0.17194 0.1059633,-0.3678 0.1059633,-0.6072 0,-0.89984 -0.2561098,-1.52207 -0.727465,-1.88465 -0.4713553,-0.36259 -1.0732928,-0.44887 -1.7247213,-0.50318 -0.068614,-0.006 -0.1374813,-0.009 -0.2054297,-0.008 z m 0.057856,0.66635 c 0.031288,3.4e-4 0.062177,0.003 0.092966,0.005 0.6176773,0.0515 1.0889891,0.14962 1.3736649,0.3686 0.2846783,0.21899 0.4667748,0.57191 0.4667748,1.35612 0,0.17887 -0.026859,0.28508 -0.044207,0.3244 0.00767,-0.009 -0.1317755,-0.0273 -0.3120491,-0.15213 -0.185122,-0.12818 -0.3821575,-0.31233 -0.5363309,-0.46742 0.1249092,-0.0819 0.2599342,-0.18357 0.3718556,-0.29709 0.1296557,-0.13079 0.1284644,-0.34201 -0.00264,-0.47132 -0.063266,-0.0627 -0.1489513,-0.0973 -0.2379351,-0.0962 -0.088062,10e-4 -0.1719845,0.0376 -0.2333862,0.10077 -0.4555585,0.37362 -1.0339557,0.60737 -1.508936,0.73722 -0.2428856,0.0645 -0.4911134,0.091 -0.6832557,0.091 -0.1461421,0 -0.2609095,-0.0688 -0.3536555,-0.15017 -0.072222,-0.10014 -0.082358,-0.18868 -0.039006,-0.33155 0.04335,-0.14288 0.1599954,-0.32074 0.3341536,-0.48368 0.3265448,-0.3055 0.8427154,-0.53902 1.3119039,-0.53308 z m 10.802744,0.0755 c -0.441117,0.004 -0.985827,0.22936 -1.394467,0.86789 -0.780966,1.22061 -0.738289,2.36742 -0.798973,3.00021 -5e-6,6.7e-4 -5e-6,10e-4 0,0.003 -0.02706,0.29948 0.162934,0.58381 0.452469,0.6709 9.98e-4,0 0.0016,0 0.0026,0 0.343419,0.0999 0.779529,0.10794 1.188385,0.0923 l -0.01107,0.10202 c -0.95802,0.26127 -1.681842,0.56242 -2.219448,0.98036 -0.145154,0.11259 -0.171633,0.32151 -0.05917,0.46676 0.112781,0.14683 0.323692,0.17341 0.469375,0.0591 0.402924,-0.31324 0.995079,-0.58024 1.820933,-0.81848 0.154303,0.55881 0.669395,0.9732 1.27485,0.9732 0.605894,0 1.120654,-0.41428 1.274851,-0.9732 0.835738,0.24131 1.430452,0.51186 1.835887,0.83018 -0.181629,0.12115 -0.384941,0.29962 -0.549986,0.55583 -0.09907,0.15396 -0.05522,0.35902 0.09816,0.45898 0.154476,0.10089 0.361504,0.0569 0.461572,-0.0981 0.145417,-0.22575 0.323021,-0.3552 0.45247,-0.42581 0.269424,0.4004 0.382913,0.89413 0.382913,1.58559 v 0.81848 h -1.476382 v -0.98815 c -6.67e-4,-0.18384 -0.150323,-0.33227 -0.334154,-0.33156 -0.182816,6.7e-4 -0.330839,0.14874 -0.331551,0.33156 v 0.98815 H 16.8996 c -0.182816,6.7e-4 -0.330841,0.14874 -0.331555,0.33155 -6.65e-4,0.18384 0.147724,0.33344 0.331555,0.33416 h 4.044285 c 0.175872,0 0.345168,-0.0702 0.469371,-0.19439 0.124167,-0.12417 0.194383,-0.29349 0.194383,-0.46872 v -0.82108 c 0,-0.97104 -0.234039,-1.75613 -0.818481,-2.34882 -0.550867,-0.55867 -1.365789,-0.93177 -2.515894,-1.24559 l -0.01107,-0.10278 c 0.40576,0.0151 0.837054,0.008 1.177983,-0.0917 0.0016,2e-5 0.0035,2e-5 0.0052,0 0.289548,-0.087 0.476781,-0.37144 0.449874,-0.6709 v -6.7e-4 -6.6e-4 -6.7e-4 c -0.06064,-0.63284 -0.01547,-1.77961 -0.796376,-3.00021 -0.450915,-0.70457 -1.070856,-0.90651 -1.530991,-0.86269 -0.344902,0.0328 -0.474234,0.14595 -0.587041,0.21648 -0.112845,-0.0706 -0.242144,-0.18365 -0.587042,-0.21648 -0.04314,-0.004 -0.08829,-0.005 -0.133923,-0.005 z m -0.02926,0.66116 c 0.03359,1.2e-4 0.06649,0.003 0.09882,0.005 0.258673,0.0247 0.45507,0.16187 0.45507,0.16187 0.116958,0.0854 0.275707,0.0854 0.392662,0 0,0 0.196396,-0.13724 0.455072,-0.16187 0.258677,-0.0247 0.559115,0.018 0.90624,0.56039 0.667609,1.04351 0.619413,1.95217 0.68586,2.67581 -0.187454,0.0483 -0.581446,0.0668 -0.9641,0.0605 0.21192,-0.30156 0.343303,-0.69024 0.379657,-1.14482 0.003,-0.017 0.0044,-0.0341 0.0045,-0.0513 6.66e-4,-0.18409 -0.148116,-0.33379 -0.3322,-0.33416 -0.295136,-3.2e-4 -0.56229,-0.12127 -0.744366,-0.3283 0.0485,-0.0435 0.09472,-0.0896 0.13782,-0.13847 0.121361,-0.13776 0.108265,-0.34776 -0.02926,-0.46937 -0.06615,-0.0586 -0.152929,-0.0886 -0.241188,-0.0833 -0.08805,0.006 -0.170127,0.0467 -0.228187,0.11309 -0.184752,0.20959 -0.457455,0.3411 -0.759316,0.3413 -0.17303,-7e-5 -0.343896,-0.0447 -0.494079,-0.12806 -0.160185,-0.0889 -0.362129,-0.0317 -0.45182,0.12806 -0.01032,0.0186 -0.01881,0.0383 -0.02536,0.0585 -0.100831,0.24596 -0.156677,0.52823 -0.156677,0.84059 6.66e-4,0.008 0.0016,0.0147 0.0026,0.0221 0.03302,0.46708 0.165204,0.86612 0.381608,1.17409 -0.384069,0.006 -0.77955,-0.0113 -0.966702,-0.0605 0.06655,-0.72369 0.0202,-1.63231 0.687808,-2.67582 0.303735,-0.4746 0.570323,-0.56655 0.805476,-0.56559 z m -5.079243,0.054 c -0.657245,0.008 -1.2776976,0.30709 -1.7117197,0.71316 -0.2394611,0.22403 -0.426318,0.48476 -0.515532,0.77881 -0.089219,0.29404 -0.060272,0.6375 0.1371724,0.91144 0.083596,0.11612 0.1876985,0.20449 0.3022957,0.2698 v 0.31725 c 0,0.74042 0.3038682,1.41973 0.7879236,1.84759 l -0.102062,0.99596 c -1.1476949,0.31333 -1.9650596,0.68665 -2.5158968,1.24494 -0.5848152,0.59273 -0.8184769,1.38003 -0.8184769,2.35142 0,0.28733 0.00201,0.54894 0.00264,0.82108 6.655e-4,0.36143 0.301371,0.66051 0.6631058,0.66051 H 15.29517 c 0.175229,0 0.345244,-0.0696 0.469374,-0.19374 0.124419,-0.12429 0.19438,-0.2909 0.19438,-0.46677 v -0.82108 c 0,-0.97117 -0.231436,-1.75868 -0.815878,-2.35142 -0.550553,-0.55838 -1.367213,-0.93124 -2.516541,-1.24494 l -0.100768,-0.98231 c 0.41028,-0.3548 0.694156,-0.88815 0.778172,-1.48548 0.17086,-0.0525 0.32317,-0.19746 0.399164,-0.36341 0.07875,-0.17193 0.105321,-0.36715 0.105321,-0.60654 0,-0.89984 -0.255457,-1.52206 -0.726816,-1.88465 -0.471355,-0.36259 -1.073302,-0.44952 -1.72472,-0.50382 -0.06861,-0.006 -0.137441,-0.009 -0.20543,-0.008 z m 0.05525,0.66635 c 0.03129,3.2e-4 0.06283,0.003 0.09361,0.005 0.617677,0.0514 1.088337,0.14963 1.373016,0.36861 0.284679,0.21899 0.469374,0.57255 0.469374,1.35677 0,0.17753 -0.02945,0.28173 -0.04681,0.32179 0.005,-0.009 -0.130883,-0.0264 -0.309446,-0.15017 -0.192548,-0.13334 -0.398593,-0.32689 -0.555839,-0.48562 0.08514,-0.1097 0.09317,-0.26086 0.02014,-0.37901 -0.09581,-0.15655 -0.300267,-0.20599 -0.457023,-0.11058 -0.377358,0.22969 -0.808282,0.3864 -1.154628,0.48107 -0.242886,0.0645 -0.485571,0.091 -0.6858543,0.091 -0.1310144,0 -0.2685529,-0.0673 -0.3510567,-0.14951 -0.072223,-0.10027 -0.083004,-0.18934 -0.039653,-0.33221 0.043351,-0.14287 0.1580443,-0.32073 0.3322027,-0.48367 0.3265443,-0.3055 0.8427083,-0.53901 1.3119033,-0.53309 z m -5.3145838,0.2802 c 0.1242173,0.14151 0.3592807,0.43233 0.7638723,0.7125 0.070613,0.0489 0.1431631,0.0983 0.2190836,0.14172 -0.069619,0.38511 -0.2262833,0.71778 -0.4277685,0.9589 -0.2268386,0.25421 -0.5492194,0.44468 -0.8522813,0.44468 -0.3358879,0 -0.6497575,-0.17879 -0.8997429,-0.51099 -0.2450126,-0.32557 -0.4108595,-0.79246 -0.4173634,-1.3171 0.2673402,0.003 0.5335088,-0.0498 0.7814205,-0.11574 0.4506687,-0.11976 0.6862415,-0.24386 0.8327797,-0.31399 z m 11.0946418,0.78271 c 0.232901,0.31089 0.570792,0.5253 0.948496,0.61174 -0.06007,0.27798 -0.169651,0.48399 -0.300995,0.62735 -0.0035,0.004 -0.0069,0.008 -0.01044,0.0113 -0.0079,0.008 -0.01557,0.0157 -0.02277,0.024 -3.34e-4,3.3e-4 -9.99e-4,10e-4 -0.0014,10e-4 -0.169914,0.16812 -0.374252,0.249 -0.616296,0.249 -0.229482,0 -0.425158,-0.0728 -0.589641,-0.22364 l -0.07803,-0.08 c -0.167362,-0.1923 -0.296076,-0.49266 -0.32765,-0.91535 9.98e-4,-0.0979 0.0087,-0.18949 0.0221,-0.27433 0.141976,0.0382 0.289243,0.0577 0.437522,0.0579 0.213464,0.006 0.376076,-0.0419 0.538977,-0.0891 z m -5.34514,0.67415 c 0.124167,0.14151 0.361877,0.42973 0.766473,0.70992 0.07643,0.053 0.154833,0.10655 0.237287,0.15277 -0.06746,0.49876 -0.310202,0.90674 -0.6345,1.14419 -0.01697,0.0101 -0.03309,0.0206 -0.04811,0.0331 -0.186781,0.12417 -0.397825,0.19309 -0.6163,0.19309 -0.695186,0 -1.316455,-0.70409 -1.316457,-1.64607 v -0.15732 c 0.266475,0.001 0.531711,-0.0494 0.778824,-0.11511 0.450668,-0.11977 0.686244,-0.24454 0.832779,-0.31466 z m -6.6414394,1.35092 c 0.1864906,0.0745 0.386538,0.11574 0.5948437,0.11574 0.2047607,0 0.4014331,-0.0395 0.5857401,-0.11121 l 0.06501,0.60264 c -0.002,0.36445 -0.2887293,0.654 -0.6533524,0.654 -0.3653086,0 -0.6544441,-0.28926 -0.6566009,-0.654 z m 12.5801214,0.0455 0.0611,0.55908 c 0,0.36669 -0.289275,0.6566 -0.655951,0.6566 -0.364627,0 -0.651202,-0.28955 -0.653352,-0.654 l 0.0611,-0.55778 c 0.185791,0.076 0.386384,0.11574 0.590293,0.11574 0.207011,0 0.409208,-0.0413 0.596794,-0.11964 z m -6.797467,1.40942 c 0.177554,0.0608 0.366314,0.0936 0.563639,0.0936 0.191217,0 0.375172,-0.0311 0.548038,-0.0884 l 0.09816,0.9602 c -0.0026,0.36435 -0.290647,0.65596 -0.655953,0.65596 -0.366383,0 -0.655952,-0.28997 -0.655955,-0.65596 z m 1.83134,1.31255 c 0.833482,0.24075 1.428499,0.51086 1.833936,0.82822 -0.181974,0.12115 -0.3853,0.30009 -0.550634,0.55715 -0.100806,0.15529 -0.05553,0.36297 0.100767,0.46222 0.154627,0.0986 0.359859,0.0535 0.458973,-0.10077 0.145879,-0.22681 0.324769,-0.35672 0.454418,-0.42711 0.269185,0.40117 0.38096,0.89676 0.38096,1.58885 v 0.81588 H 13.81614 v -0.98491 c 6.66e-4,-0.18384 -0.147719,-0.33343 -0.331551,-0.33416 -0.184845,-6.6e-4 -0.334878,0.14932 -0.334152,0.33416 v 0.98491 H 9.5287219 v -0.98491 c 6.655e-4,-0.18484 -0.1493073,-0.33488 -0.3341539,-0.33416 -0.1840841,3.4e-4 -0.3329222,0.15007 -0.3322027,0.33416 v 0.98491 H 7.383383 c -6.667e-4,-0.27176 -0.00264,-0.5308 -0.00264,-0.81588 0,-0.69036 0.1136122,-1.1848 0.3822607,-1.5856 0.1290896,0.0711 0.3046532,0.20032 0.4485687,0.42386 0.099107,0.15429 0.3043462,0.19935 0.4589725,0.10077 0.1562919,-0.0993 0.2015694,-0.30693 0.1007677,-0.46222 -0.1640954,-0.25489 -0.3659039,-0.43279 -0.546736,-0.55389 0.4058637,-0.31867 1.0012966,-0.58845 1.8371884,-0.82953 0.154466,0.55786 0.669449,0.97061 1.27485,0.97061 0.605672,0 1.122479,-0.41402 1.277451,-0.97256 z"
       sodipodi:nodetypes="sssccssccssscscscccscccsccccccscccccccsccssssssscssccccccccccssssscccccccccccsccccccscccscccscssssscccccccccscssscccccccccccccccccscccccccccsssccsccsscsscssscccssssssscssccccccccsssscscccscccccscccsccccccsscccssccsscsccsccccsccsccsccsccscccccscccsccccccccsccccccscs" />
  </g>
</svg>
